<svg height='100px' width='100px'  fill="#336699" xmlns="http://www.w3.org/2000/svg" xmlns:xlink="http://www.w3.org/1999/xlink" version="1.1" x="0px" y="0px" viewBox="0 0 100 100" style="enable-background:new 0 0 100 100;" xml:space="preserve"><g><path d="M93,14h-8v-4c0-1.1-0.9-2-2-2H47c-1.1,0-2,0.9-2,2v4h-6v-4c0-1.1-0.9-2-2-2H17c-1.1,0-2,0.9-2,2v4H7c-1.1,0-2,0.9-2,2v68   c0,1.1,0.9,2,2,2h8v4c0,1.1,0.9,2,2,2h20c1.1,0,2-0.9,2-2v-4h54c1.1,0,2-0.9,2-2V16C95,14.9,94.1,14,93,14z M49,12h32v16H49V12z    M9,82V18h6v64H9z M35,88H19v-4V16v-4h16v4v68V88z M91,82H39V18h6v12c0,1.1,0.9,2,2,2h36c1.1,0,2-0.9,2-2V18h6V82z"></path><path d="M83,37H47c-1.1,0-2,0.9-2,2v36c0,1.1,0.9,2,2,2h36c1.1,0,2-0.9,2-2V39C85,37.9,84.1,37,83,37z M61,61v-8h8v8H61z M69,65v8   h-8v-8H69z M49,53h8v8h-8V53z M61,49v-8h8v8H61z M73,53h8v8h-8V53z M81,49h-8v-8h8V49z M57,41v8h-8v-8H57z M49,65h8v8h-8V65z    M73,73v-8h8v8H73z"></path></g></svg>